<svg viewBox="0 0 1000 1000" xml:space="preserve" xmlns="http://www.w3.org/2000/svg"><path d="M612.266 465.045c-15.03 0-28.754 5.681-39.154 15H427.357c-10.4-9.319-24.124-15-39.154-15-32.391 0-58.742 26.351-58.742 58.741s26.352 58.74 58.742 58.74c15.03 0 28.755-5.681 39.154-15h145.754c10.399 9.319 24.124 15 39.154 15 32.39 0 58.74-26.351 58.74-58.74.001-32.39-26.35-58.741-58.739-58.741zm-224.063 87.481c-15.849 0-28.742-12.893-28.742-28.74s12.894-28.741 28.742-28.741 28.74 12.894 28.74 28.741-12.892 28.74-28.74 28.74zm224.063 0c-15.848 0-28.74-12.893-28.74-28.74s12.893-28.741 28.74-28.741 28.74 12.894 28.74 28.741-12.893 28.74-28.74 28.74z" fill="#ffffff" class="fill-000000"></path><path d="M682.947 344.548h-444.67c-8.284 0-15 6.716-15 15v281.383c0 8.284 6.716 15 15 15h523.912c8.284 0 15-6.716 15-15V359.548c0-8.284-6.716-15-15-15H682.947zm-26.924 30-16.381 26.469H359.994l-16.176-26.469h312.205zm91.166 251.384H253.277V374.548H308.66l30.123 49.291a14.999 14.999 0 0 0 12.799 7.178H648a15 15 0 0 0 12.755-7.106l30.55-49.363H747.19v251.384z" fill="#ffffff" class="fill-000000"></path><path d="M857.297 603.275h-1.139a15.001 15.001 0 0 0-14.226 10.242C792.979 759.893 656.49 858.238 502.299 858.238c-197.399 0-357.996-160.598-357.996-357.998 0-197.401 160.597-357.998 357.996-357.998 49.126 0 96.767 9.834 141.602 29.228 7.16 3.098 15.501.188 19.182-6.692l.525-.982a15 15 0 0 0-7.275-20.844l-.919-.401a140.59 140.59 0 0 0-1.693-.733c-47.969-20.288-98.914-30.575-151.421-30.575-52.506 0-103.45 10.287-151.419 30.575-46.322 19.592-87.922 47.638-123.643 83.359-35.722 35.722-63.768 77.321-83.359 123.643-20.288 47.969-30.575 98.915-30.575 151.421 0 52.506 10.287 103.45 30.575 151.419 19.593 46.325 47.64 87.925 83.359 123.643 35.72 35.72 77.318 63.767 123.643 83.361 47.969 20.288 98.913 30.575 151.419 30.575 52.507 0 103.452-10.287 151.422-30.575 46.325-19.596 87.925-47.643 123.644-83.361 35.72-35.718 63.766-77.317 83.358-123.642a390.864 390.864 0 0 0 10.806-28.645 15.001 15.001 0 0 0-14.233-19.741z" fill="#ffffff" class="fill-000000"></path><path d="M683.424 191.56a360.85 360.85 0 0 1 50.654 36.086 14.968 14.968 0 0 0 9.726 3.581c3.62 0 7.237-1.305 10.094-3.903l.885-.805a15.001 15.001 0 0 0-.357-22.508 388.818 388.818 0 0 0-55.234-39.341 15 15 0 0 0-20.831 5.867l-.553 1.035c-3.787 7.091-1.31 15.907 5.616 19.988zM887.001 442.09c-4.784-31.977-13.625-63.358-26.277-93.271-13.436-31.768-31.009-61.568-52.23-88.574a15 15 0 0 0-21.867-1.846l-.896.813c-5.834 5.287-6.587 14.185-1.726 20.377 38.122 48.559 63.114 106.292 72.275 166.96a15 15 0 0 0 14.832 12.76h1.055a15.001 15.001 0 0 0 14.834-17.219z" fill="#ffffff" class="fill-000000"></path></svg>